<svg width="88" height="59" viewBox="0 0 88 59" fill="none" xmlns="http://www.w3.org/2000/svg">
<path d="M64.4643 57.4249C63.0613 56.678 62.0269 55.429 61.5591 53.9051C61.0921 52.3819 61.2466 50.7685 61.9949 49.3615L68.5221 37.0725C42.7742 43.4418 15.3794 32.454 1.24468 9.82592C0.401173 8.47436 0.133434 6.87683 0.492332 5.32505C0.850571 3.77258 1.79327 2.45288 3.14416 1.60868C5.93151 -0.132854 9.62112 0.727643 11.3587 3.5081C23.4102 22.8171 46.6328 31.4162 68.2595 24.7763L56.8741 12.9865C54.5906 10.6219 54.656 6.83987 57.0213 4.55569C59.3866 2.27151 63.1686 2.33821 65.4521 4.70285L86.7373 26.7443C87.0344 27.0519 87.0993 27.5166 86.8988 27.8955L72.527 54.9561C71.7801 56.3618 70.5297 57.3935 69.0072 57.8599C67.4847 58.3262 65.8707 58.1724 64.4643 57.4249Z" fill="#5DA042"/>
</svg>
