<svg width="108" height="102" viewBox="0 0 108 102" fill="none" xmlns="http://www.w3.org/2000/svg">
<g clip-path="url(#clip0_43_107)">
<path d="M96.7291 57.7453C95.75 56.4933 94.3403 55.6915 92.7583 55.4955C91.1772 55.3001 89.6151 55.7323 88.3594 56.7136L77.3906 65.2756C79.192 38.8129 63.6141 13.7423 38.8753 3.75163C37.3978 3.15563 35.7781 3.16937 34.3122 3.79228C32.8455 4.41466 31.7096 5.5722 31.1128 7.04916C29.8817 10.0966 31.3698 13.5807 34.4098 14.809C55.5182 23.3245 68.0191 44.701 65.2356 67.1522L51.6478 57.9871C48.9226 56.1489 45.2094 56.87 43.3707 59.596C41.5319 62.3221 42.2544 66.035 44.9796 67.8732L70.3823 85.0076C70.7369 85.2467 71.2058 85.23 71.5441 84.9667L95.6979 66.1142C96.9526 65.1345 97.7515 63.724 97.9464 62.1437C98.1413 60.5633 97.7095 59.0005 96.7291 57.7453Z" fill="#5DA042"/>
</g>
<defs>
<clipPath id="clip0_43_107">
<rect width="87" height="63.8559" fill="white" transform="translate(35.7077) rotate(34)"/>
</clipPath>
</defs>
</svg>
