<svg width="35" height="35" viewBox="0 0 35 35" fill="none" xmlns="http://www.w3.org/2000/svg">
<g clip-path="url(#clip0_48_19)">
<g filter="url(#filter0_d_48_19)">
<path fill-rule="evenodd" clip-rule="evenodd" d="M32.8125 7.10938C32.8125 6.67425 32.6396 6.25695 32.332 5.94928C32.0243 5.6416 31.607 5.46875 31.1719 5.46875H3.82812C3.393 5.46875 2.97571 5.6416 2.66803 5.94928C2.36035 6.25695 2.1875 6.67425 2.1875 7.10938C2.1875 7.5445 2.36035 7.9618 2.66803 8.26947C2.97571 8.57715 3.393 8.75 3.82812 8.75H31.1719C31.607 8.75 32.0243 8.57715 32.332 8.26947C32.6396 7.9618 32.8125 7.5445 32.8125 7.10938ZM32.8125 17.5C32.8125 17.0649 32.6396 16.6476 32.332 16.3399C32.0243 16.0322 31.607 15.8594 31.1719 15.8594H12.5781C12.143 15.8594 11.7257 16.0322 11.418 16.3399C11.1104 16.6476 10.9375 17.0649 10.9375 17.5C10.9375 17.9351 11.1104 18.3524 11.418 18.6601C11.7257 18.9678 12.143 19.1406 12.5781 19.1406H31.1719C31.607 19.1406 32.0243 18.9678 32.332 18.6601C32.6396 18.3524 32.8125 17.9351 32.8125 17.5ZM31.1719 26.25C31.607 26.25 32.0243 26.4229 32.332 26.7305C32.6396 27.0382 32.8125 27.4555 32.8125 27.8906C32.8125 28.3257 32.6396 28.743 32.332 29.0507C32.0243 29.3584 31.607 29.5312 31.1719 29.5312H25.7031C25.268 29.5312 24.8507 29.3584 24.543 29.0507C24.2354 28.743 24.0625 28.3257 24.0625 27.8906C24.0625 27.4555 24.2354 27.0382 24.543 26.7305C24.8507 26.4229 25.268 26.25 25.7031 26.25H31.1719Z" fill="white"/>
</g>
</g>
<defs>
<filter id="filter0_d_48_19" x="-1.8125" y="5.46875" width="38.625" height="32.0625" filterUnits="userSpaceOnUse" color-interpolation-filters="sRGB">
<feFlood flood-opacity="0" result="BackgroundImageFix"/>
<feColorMatrix in="SourceAlpha" type="matrix" values="0 0 0 0 0 0 0 0 0 0 0 0 0 0 0 0 0 0 127 0" result="hardAlpha"/>
<feOffset dy="4"/>
<feGaussianBlur stdDeviation="2"/>
<feComposite in2="hardAlpha" operator="out"/>
<feColorMatrix type="matrix" values="0 0 0 0 0 0 0 0 0 0 0 0 0 0 0 0 0 0 0.25 0"/>
<feBlend mode="normal" in2="BackgroundImageFix" result="effect1_dropShadow_48_19"/>
<feBlend mode="normal" in="SourceGraphic" in2="effect1_dropShadow_48_19" result="shape"/>
</filter>
<clipPath id="clip0_48_19">
<rect width="35" height="35" fill="white" transform="matrix(-1 0 0 1 35 0)"/>
</clipPath>
</defs>
</svg>
