<svg width="40" height="40" viewBox="0 0 40 40" fill="none" xmlns="http://www.w3.org/2000/svg">
<path d="M9.20281 30.9955L3.70791 36.4882C3.07776 37.1181 3.52388 38.1955 4.41488 38.1955H37.1997C37.752 38.1955 38.1997 37.7478 38.1997 37.1955V4.41413C38.1997 3.52324 37.1226 3.07707 36.4926 3.70701L9.20281 30.9955ZM26.1791 15.0823C26.303 14.9587 26.4709 14.8892 26.6459 14.8892C26.821 14.8892 26.9889 14.9587 27.1128 15.0823L28.7441 16.7136C28.8673 16.8367 28.9366 17.0037 28.9368 17.1779C28.9369 17.3521 28.8678 17.5192 28.7448 17.6424C28.6217 17.7657 28.4547 17.835 28.2805 17.8351C28.1063 17.8353 27.9392 17.7662 27.8159 17.6431L26.1791 16.0119C26.1179 15.9508 26.0694 15.8782 26.0363 15.7983C26.0032 15.7185 25.9862 15.6329 25.9862 15.5464C25.9862 15.46 26.0032 15.3744 26.0363 15.2945C26.0694 15.2146 26.1179 15.1435 26.1791 15.0823ZM23.9291 17.338C23.9898 17.2767 24.0621 17.2282 24.1418 17.195C24.2214 17.1618 24.3069 17.1448 24.3931 17.1448C24.4794 17.1448 24.5648 17.1618 24.6445 17.195C24.7241 17.2282 24.7964 17.2767 24.8572 17.338L27.8905 20.367C27.9517 20.4278 28.0003 20.5001 28.0334 20.5798C28.0666 20.6594 28.0837 20.7448 28.0837 20.8311C28.0837 20.9174 28.0666 21.0028 28.0334 21.0824C28.0003 21.1621 27.9517 21.2344 27.8905 21.2952C27.8301 21.3576 27.7578 21.4074 27.6779 21.4415C27.598 21.4756 27.5121 21.4934 27.4252 21.4938C27.3383 21.4942 27.2522 21.4772 27.172 21.4438C27.0918 21.4104 27.0191 21.3613 26.9581 21.2994L23.9263 18.2717C23.8027 18.1481 23.7333 17.9804 23.7333 17.8055C23.7333 17.6307 23.8027 17.463 23.9263 17.3394L23.9291 17.338ZM21.672 19.588C21.7963 19.465 21.9641 19.396 22.1389 19.396C22.3137 19.396 22.4815 19.465 22.6058 19.588L24.237 21.222C24.3302 21.3136 24.3939 21.431 24.4201 21.559C24.4462 21.687 24.4335 21.82 24.3837 21.9408C24.3339 22.0615 24.2491 22.1647 24.1404 22.2371C24.0316 22.3095 23.9036 22.3478 23.773 22.347C23.686 22.3472 23.5998 22.3301 23.5194 22.2968C23.4391 22.2635 23.3661 22.2146 23.3047 22.153L21.6734 20.5217C21.5497 20.3976 21.4802 20.2294 21.4802 20.0541C21.4802 19.8789 21.5497 19.7107 21.6734 19.5866L21.672 19.588ZM19.422 21.8436C19.5463 21.7207 19.7141 21.6521 19.8888 21.6526C20.0635 21.6531 20.2309 21.7228 20.3544 21.8464L21.9828 23.4777C22.0439 23.539 22.0924 23.6117 22.1254 23.6918C22.1584 23.7718 22.1753 23.8575 22.1752 23.9441C22.1751 24.0307 22.1579 24.1164 22.1246 24.1963C22.0914 24.2763 22.0427 24.3489 21.9814 24.41C21.9201 24.4711 21.8473 24.5196 21.7673 24.5526C21.6873 24.5856 21.6015 24.6025 21.5149 24.6024C21.4284 24.6023 21.3427 24.5851 21.2627 24.5518C21.1828 24.5186 21.1102 24.4699 21.0491 24.4086L19.4206 22.7773C19.297 22.6534 19.2275 22.4855 19.2275 22.3105C19.2275 22.1354 19.297 21.9675 19.4206 21.8436H19.422ZM17.1664 24.0992C17.2275 24.0377 17.3001 23.9889 17.3801 23.9555C17.4601 23.9222 17.5459 23.9051 17.6326 23.9051C17.7192 23.9051 17.8051 23.9222 17.8851 23.9555C17.9651 23.9889 18.0377 24.0377 18.0987 24.0992L21.1278 27.1269C21.1916 27.1877 21.2426 27.2606 21.2777 27.3413C21.3129 27.4221 21.3316 27.5091 21.3327 27.5971C21.3338 27.6852 21.3173 27.7726 21.2841 27.8542C21.2509 27.9358 21.2018 28.01 21.1395 28.0723C21.0773 28.1347 21.0032 28.1839 20.9217 28.2172C20.8401 28.2505 20.7527 28.2672 20.6646 28.2662C20.5765 28.2653 20.4895 28.2467 20.4087 28.2116C20.3279 28.1766 20.2549 28.1257 20.1941 28.062L17.1664 25.0316C17.0428 24.9079 16.9734 24.7402 16.9734 24.5654C16.9734 24.3906 17.0428 24.2229 17.1664 24.0992ZM14.368 34.8191C14.307 34.8806 14.2345 34.9295 14.1546 34.963C14.0747 34.9964 13.989 35.0138 13.9024 35.014C13.8158 35.0143 13.7299 34.9975 13.6498 34.9645C13.5698 34.9315 13.497 34.883 13.4356 34.8219L10.4066 31.7942C10.3453 31.7331 10.2968 31.6605 10.2636 31.5806C10.2304 31.5007 10.2133 31.4151 10.2133 31.3285C10.2132 31.242 10.2302 31.1564 10.2632 31.0764C10.2963 30.9965 10.3447 30.9238 10.4059 30.8626C10.467 30.8014 10.5396 30.7528 10.6195 30.7196C10.6994 30.6864 10.785 30.6693 10.8715 30.6693C10.958 30.6692 11.0437 30.6862 11.1237 30.7192C11.2036 30.7523 11.2763 30.8008 11.3375 30.8619L14.3666 33.8909C14.4278 33.9517 14.4764 34.024 14.5095 34.1037C14.5427 34.1833 14.5598 34.2687 14.5598 34.355C14.5598 34.4413 14.5427 34.5267 14.5095 34.6063C14.4764 34.686 14.4278 34.7583 14.3666 34.8191H14.368ZM15.2258 31.167C15.1013 31.292 14.9325 31.3627 14.7561 31.3639C14.6697 31.3642 14.5841 31.3472 14.5044 31.3138C14.4247 31.2805 14.3525 31.2315 14.292 31.1698L12.6566 29.5386C12.5952 29.4779 12.5464 29.4056 12.5132 29.326C12.4799 29.2463 12.4628 29.1609 12.4628 29.0745C12.4628 28.9882 12.4799 28.9027 12.5132 28.8231C12.5464 28.7434 12.5952 28.6712 12.6566 28.6105C12.7173 28.5484 12.7897 28.4989 12.8696 28.465C12.9496 28.4311 13.0354 28.4133 13.1223 28.4128C13.2091 28.4123 13.2952 28.429 13.3755 28.4619C13.4559 28.4949 13.5289 28.5435 13.5903 28.6048L15.2244 30.2389C15.2856 30.2997 15.3342 30.372 15.3674 30.4516C15.4005 30.5313 15.4176 30.6167 15.4176 30.703C15.4176 30.7892 15.4005 30.8747 15.3674 30.9543C15.3342 31.034 15.2856 31.1063 15.2244 31.167H15.2258ZM17.4758 28.9142C17.415 28.9759 17.3425 29.0248 17.2626 29.0582C17.1827 29.0916 17.0969 29.1089 17.0103 29.1089C16.9237 29.1089 16.838 29.0916 16.7581 29.0582C16.6781 29.0248 16.6057 28.9759 16.5448 28.9142L14.9136 27.283C14.8525 27.2217 14.804 27.1489 14.771 27.0689C14.738 26.9888 14.7211 26.9031 14.7212 26.8165C14.7213 26.7299 14.7385 26.6442 14.7718 26.5643C14.805 26.4844 14.8537 26.4118 14.915 26.3506C14.9763 26.2895 15.0491 26.241 15.1291 26.208C15.2091 26.175 15.2949 26.1581 15.3815 26.1582C15.468 26.1584 15.5537 26.1755 15.6337 26.2088C15.7136 26.2421 15.7862 26.2907 15.8473 26.352L17.4786 27.9833C17.6014 28.1071 17.6703 28.2744 17.6703 28.4488C17.6703 28.6231 17.6014 28.7904 17.4786 28.9142H17.4758ZM31.1684 31.1642H18.9762L31.1684 18.972V31.1642ZM30.9997 15.3917C30.9392 15.4534 30.867 15.5024 30.7873 15.5357C30.7076 15.569 30.622 15.5861 30.5356 15.5858C30.3595 15.5858 30.1906 15.516 30.0659 15.3917L28.4347 13.7605C28.3736 13.6993 28.3251 13.6268 28.292 13.5469C28.2589 13.467 28.2419 13.3814 28.2419 13.295C28.2419 13.2086 28.2589 13.123 28.292 13.0431C28.3251 12.9632 28.3736 12.8907 28.4347 12.8295C28.4958 12.7684 28.5684 12.7199 28.6482 12.6868C28.7281 12.6538 28.8137 12.6367 28.9002 12.6367C28.9866 12.6367 29.0722 12.6538 29.1521 12.6868C29.2319 12.7199 29.3045 12.7684 29.3656 12.8295L30.9969 14.4608C31.2556 14.7181 31.257 15.1358 30.9997 15.3917ZM34.6503 14.5367C34.5265 14.6597 34.359 14.7286 34.1846 14.7283C34.0101 14.728 33.8428 14.6586 33.7194 14.5353L30.6903 11.5077C30.5669 11.3838 30.4977 11.216 30.4979 11.0412C30.4982 10.8663 30.5679 10.6988 30.6917 10.5753C30.8155 10.4519 30.9833 10.3827 31.1582 10.3829C31.333 10.3832 31.5006 10.4529 31.6241 10.5767L34.6531 13.6058C34.9105 13.8631 34.9063 14.2808 34.6503 14.5367Z" fill="#5DA042"/>
</svg>
