<svg width="31" height="38" viewBox="0 0 31 38" fill="none" xmlns="http://www.w3.org/2000/svg">
<path fill-rule="evenodd" clip-rule="evenodd" d="M15.1406 0.151668C15.3741 0.0515994 15.6254 0 15.8794 0C16.1334 0 16.3847 0.0515994 16.6181 0.151668L28.6069 5.29104C29.2816 5.58027 29.8566 6.06117 30.2605 6.67411C30.6645 7.28706 30.8797 8.00508 30.8794 8.73917V21.6017C30.8792 23.9153 30.2674 26.1877 29.106 28.1887C27.9447 30.1897 26.275 31.8482 24.2663 32.996L16.8094 37.256C16.5261 37.4178 16.2056 37.5029 15.8794 37.5029C15.5532 37.5029 15.2326 37.4178 14.9494 37.256L7.49252 32.996C5.48321 31.8479 3.8132 30.1888 2.65182 28.1871C1.49043 26.1854 0.87896 23.9122 0.879395 21.5979V8.73917C0.879476 8.0054 1.09483 7.28778 1.49876 6.67521C1.9027 6.06263 2.47748 5.58202 3.15189 5.29292L15.1406 0.151668ZM22.83 16.3273C23.1716 15.9737 23.3606 15.5 23.3563 15.0084C23.352 14.5168 23.1548 14.0465 22.8072 13.6989C22.4595 13.3512 21.9893 13.1541 21.4976 13.1498C21.006 13.1455 20.5324 13.3345 20.1788 13.676L14.0044 19.8504L11.58 17.426C11.2264 17.0845 10.7528 16.8955 10.2611 16.8998C9.76952 16.9041 9.29925 17.1012 8.95161 17.4489C8.60397 17.7965 8.40678 18.2668 8.40251 18.7584C8.39823 19.25 8.58722 19.7237 8.92877 20.0773L12.6788 23.8273C13.0304 24.1788 13.5072 24.3763 14.0044 24.3763C14.5016 24.3763 14.9784 24.1788 15.33 23.8273L22.83 16.3273Z" fill="#5DA042"/>
</svg>
