<svg width="50" height="34" viewBox="0 0 50 34" fill="none" xmlns="http://www.w3.org/2000/svg">
<path d="M26.8229 5.61607C27.8125 5.08482 28.4722 4.12098 28.4722 3.03571C28.4722 1.35848 26.9184 0 25 0C23.0816 0 21.5278 1.35848 21.5278 3.03571C21.5278 4.12857 22.1875 5.08482 23.1771 5.61607L18.2031 14.3134C17.4132 15.6946 15.3646 16.0893 13.9844 15.1254L6.25 9.71429C6.68403 9.2058 6.94444 8.57589 6.94444 7.89286C6.94444 6.21562 5.39063 4.85714 3.47222 4.85714C1.55382 4.85714 0 6.21562 0 7.89286C0 9.57009 1.55382 10.9286 3.47222 10.9286H3.53299L7.5 30.008C7.97743 32.3152 10.2778 34 12.9688 34H37.0313C39.7135 34 42.0139 32.3228 42.5 30.008L46.467 10.9286H46.5278C48.4462 10.9286 50 9.57009 50 7.89286C50 6.21562 48.4462 4.85714 46.5278 4.85714C44.6094 4.85714 43.0556 6.21562 43.0556 7.89286C43.0556 8.57589 43.316 9.2058 43.75 9.71429L36.0156 15.1254C34.6354 16.0893 32.5868 15.6946 31.7969 14.3134L26.8229 5.61607Z" fill="#5DA042"/>
<path d="M25 33C19.477 33 15 28.523 15 23C15 17.477 19.477 13 25 13C30.523 13 35 17.477 35 23C35 28.523 30.523 33 25 33ZM25 31C27.1217 31 29.1566 30.1571 30.6569 28.6569C32.1571 27.1566 33 25.1217 33 23C33 20.8783 32.1571 18.8434 30.6569 17.3431C29.1566 15.8429 27.1217 15 25 15C22.8783 15 20.8434 15.8429 19.3431 17.3431C17.8429 18.8434 17 20.8783 17 23C17 25.1217 17.8429 27.1566 19.3431 28.6569C20.8434 30.1571 22.8783 31 25 31ZM21.5 25H27C27.1326 25 27.2598 24.9473 27.3536 24.8536C27.4473 24.7598 27.5 24.6326 27.5 24.5C27.5 24.3674 27.4473 24.2402 27.3536 24.1464C27.2598 24.0527 27.1326 24 27 24H23C22.337 24 21.7011 23.7366 21.2322 23.2678C20.7634 22.7989 20.5 22.163 20.5 21.5C20.5 20.837 20.7634 20.2011 21.2322 19.7322C21.7011 19.2634 22.337 19 23 19H24V17H26V19H28.5V21H23C22.8674 21 22.7402 21.0527 22.6464 21.1464C22.5527 21.2402 22.5 21.3674 22.5 21.5C22.5 21.6326 22.5527 21.7598 22.6464 21.8536C22.7402 21.9473 22.8674 22 23 22H27C27.663 22 28.2989 22.2634 28.7678 22.7322C29.2366 23.2011 29.5 23.837 29.5 24.5C29.5 25.163 29.2366 25.7989 28.7678 26.2678C28.2989 26.7366 27.663 27 27 27H26V29H24V27H21.5V25Z" fill="white"/>
</svg>
