<svg width="41" height="40" viewBox="0 0 41 40" fill="none" xmlns="http://www.w3.org/2000/svg">
<path fill-rule="evenodd" clip-rule="evenodd" d="M20.046 5C21.6844 5.00013 23.2778 5.53651 24.5827 6.52723C25.8876 7.51796 26.8324 8.90856 27.2727 10.4867L27.3594 10.8283L30.476 10.05C30.7038 9.9933 30.9411 9.98536 31.1721 10.0267C31.4032 10.0681 31.623 10.1577 31.817 10.2899C32.011 10.4221 32.1749 10.5938 32.2979 10.7937C32.421 10.9936 32.5004 11.2172 32.531 11.45L32.546 11.6667V14.6833C33.4857 15.5842 34.2557 16.6467 34.8194 17.82L35.0494 18.3333H35.8794C36.2876 18.3334 36.6816 18.4833 36.9867 18.7545C37.2917 19.0258 37.4866 19.3996 37.5344 19.805L37.546 20V25C37.5461 25.2743 37.4784 25.5444 37.349 25.7863C37.2197 26.0282 37.0326 26.2344 36.8044 26.3867L36.6244 26.49L34.6777 27.465C33.8808 29.0068 32.7264 30.3355 31.311 31.34L30.8794 31.63V33.3333C30.8793 33.7416 30.7294 34.1356 30.4582 34.4406C30.1869 34.7457 29.8131 34.9406 29.4077 34.9883L29.2127 35H24.2127C23.8045 34.9999 23.4105 34.8501 23.1054 34.5788C22.8004 34.3075 22.6055 33.9338 22.5577 33.5283L22.546 33.3333H20.8794C20.8793 33.7416 20.7294 34.1356 20.4582 34.4406C20.1869 34.7457 19.8131 34.9406 19.4077 34.9883L19.2127 35H14.2127C13.8045 34.9999 13.4105 34.8501 13.1054 34.5788C12.8004 34.3075 12.6055 33.9338 12.5577 33.5283L12.546 33.3333V31.63C11.342 30.8602 10.302 29.8601 9.48566 28.6872C8.66935 27.5142 8.09288 26.1915 7.78937 24.795C6.80659 24.5025 5.9374 23.9151 5.29946 23.1123C4.66153 22.3095 4.28565 21.3301 4.22271 20.3067L4.21271 20V19.1667C4.21318 18.7419 4.37584 18.3333 4.66745 18.0244C4.95907 17.7155 5.35763 17.5296 5.7817 17.5047C6.20577 17.4798 6.62334 17.6178 6.9491 17.8904C7.27485 18.1631 7.4842 18.5498 7.53437 18.9717L7.54604 19.1667V20C7.54604 20.2467 7.59937 20.4817 7.69604 20.6917C7.95043 19.1912 8.51793 17.7611 9.36159 16.4944C10.2053 15.2278 11.3062 14.153 12.5927 13.34C12.4745 12.2908 12.5791 11.2285 12.8997 10.2225C13.2203 9.21651 13.7497 8.28957 14.4533 7.50231C15.1569 6.71504 16.0187 6.0852 16.9825 5.65399C17.9463 5.22278 18.9902 4.99993 20.046 5ZM27.546 18.3333C27.104 18.3333 26.6801 18.5089 26.3675 18.8215C26.055 19.134 25.8794 19.558 25.8794 20C25.8794 20.442 26.055 20.8659 26.3675 21.1785C26.6801 21.4911 27.104 21.6667 27.546 21.6667C27.9881 21.6667 28.412 21.4911 28.7246 21.1785C29.0371 20.8659 29.2127 20.442 29.2127 20C29.2127 19.558 29.0371 19.134 28.7246 18.8215C28.412 18.5089 27.9881 18.3333 27.546 18.3333ZM20.046 8.33333C19.0365 8.33333 18.0613 8.69983 17.3017 9.36473C16.5421 10.0296 16.0497 10.9477 15.916 11.9483C16.7237 11.7608 17.5502 11.6663 18.3794 11.6667H24.0077L24.1244 11.6383C23.9267 10.7033 23.4136 9.86456 22.6711 9.26284C21.9286 8.66111 21.0018 8.33293 20.046 8.33333Z" fill="#5DA042"/>
</svg>
