<svg width="20" height="19" viewBox="0 0 20 19" fill="none" xmlns="http://www.w3.org/2000/svg">
<path d="M13.9511 12.1177L13.4456 12.621C13.4456 12.621 12.2422 13.8166 8.95893 10.5521C5.67561 7.28771 6.87894 6.09216 6.87894 6.09216L7.19672 5.77438C7.98227 4.99439 8.05671 3.74106 7.37116 2.82551L5.97117 0.955526C5.12228 -0.177799 3.48341 -0.327798 2.51119 0.638862L0.766758 2.37218C0.28565 2.85218 -0.0365698 3.47218 0.00231882 4.16106C0.102318 5.92438 0.90009 9.71658 5.34895 14.141C10.0678 18.8321 14.4956 19.0187 16.3055 18.8499C16.8789 18.7965 17.3766 18.5054 17.7778 18.1054L19.3555 16.5365C20.4222 15.4777 20.1222 13.661 18.7577 12.9199L16.6355 11.7655C15.74 11.2799 14.6511 11.4221 13.9511 12.1177Z" fill="white"/>
</svg>
