<svg width="41" height="40" viewBox="0 0 41 40" fill="none" xmlns="http://www.w3.org/2000/svg">
<path d="M20.8794 3.75C17.6655 3.75 14.5237 4.70305 11.8514 6.48862C9.17909 8.27419 7.09628 10.8121 5.86636 13.7814C4.63644 16.7507 4.31463 20.018 4.94164 23.1702C5.56865 26.3224 7.11631 29.2179 9.38892 31.4905C11.6615 33.7631 14.557 35.3107 17.7092 35.9378C20.8614 36.5648 24.1287 36.243 27.098 35.013C30.0673 33.7831 32.6052 31.7003 34.3908 29.028C36.1764 26.3557 37.1294 23.2139 37.1294 20C37.1249 15.6916 35.4113 11.561 32.3649 8.51454C29.3184 5.46806 25.1878 3.75455 20.8794 3.75ZM29.6294 21.25H20.8794C20.5479 21.25 20.2299 21.1183 19.9955 20.8839C19.7611 20.6495 19.6294 20.3315 19.6294 20V11.25C19.6294 10.9185 19.7611 10.6005 19.9955 10.3661C20.2299 10.1317 20.5479 10 20.8794 10C21.2109 10 21.5289 10.1317 21.7633 10.3661C21.9977 10.6005 22.1294 10.9185 22.1294 11.25V18.75H29.6294C29.9609 18.75 30.2789 18.8817 30.5133 19.1161C30.7477 19.3505 30.8794 19.6685 30.8794 20C30.8794 20.3315 30.7477 20.6495 30.5133 20.8839C30.2789 21.1183 29.9609 21.25 29.6294 21.25Z" fill="#5DA042"/>
</svg>
