<svg width="40" height="40" viewBox="0 0 40 40" fill="none" xmlns="http://www.w3.org/2000/svg">
<path fill-rule="evenodd" clip-rule="evenodd" d="M19.2612 1.15167C19.4947 1.0516 19.746 1 20 1C20.254 1 20.5053 1.0516 20.7388 1.15167L32.7275 6.29104C33.4022 6.58027 33.9772 7.06117 34.3811 7.67411C34.7851 8.28706 35.0003 9.00508 35 9.73917V22.6017C34.9998 24.9153 34.388 27.1877 33.2266 29.1887C32.0653 31.1897 30.3956 32.8482 28.3869 33.996L20.93 38.256C20.6468 38.4178 20.3262 38.5029 20 38.5029C19.6738 38.5029 19.3532 38.4178 19.07 38.256L11.6131 33.996C9.60381 32.8479 7.93381 31.1888 6.77242 29.1871C5.61104 27.1854 4.99957 24.9122 5 22.5979V9.73917C5.00008 9.0054 5.21543 8.28778 5.61937 7.67521C6.02331 7.06263 6.59809 6.58202 7.2725 6.29292L19.2612 1.15167ZM26.9506 17.3273C27.2922 16.9737 27.4812 16.5 27.4769 16.0084C27.4726 15.5168 27.2754 15.0465 26.9278 14.6989C26.5801 14.3512 26.1099 14.1541 25.6183 14.1498C25.1266 14.1455 24.653 14.3345 24.2994 14.676L18.125 20.8504L15.7006 18.426C15.347 18.0845 14.8734 17.8955 14.3817 17.8998C13.8901 17.9041 13.4199 18.1012 13.0722 18.4489C12.7246 18.7965 12.5274 19.2668 12.5231 19.7584C12.5188 20.25 12.7078 20.7237 13.0494 21.0773L16.7994 24.8273C17.151 25.1788 17.6278 25.3763 18.125 25.3763C18.6222 25.3763 19.099 25.1788 19.4506 24.8273L26.9506 17.3273Z" fill="#5DA042"/>
</svg>
