<svg width="16" height="23" viewBox="0 0 16 23" fill="none" xmlns="http://www.w3.org/2000/svg">
<path d="M8 10.8571C7.24224 10.8571 6.51551 10.5561 5.9797 10.0203C5.44388 9.48449 5.14286 8.75776 5.14286 8C5.14286 7.24224 5.44388 6.51551 5.9797 5.9797C6.51551 5.44388 7.24224 5.14286 8 5.14286C8.75776 5.14286 9.48449 5.44388 10.0203 5.9797C10.5561 6.51551 10.8571 7.24224 10.8571 8C10.8571 8.37521 10.7832 8.74674 10.6397 9.09338C10.4961 9.44003 10.2856 9.755 10.0203 10.0203C9.755 10.2856 9.44003 10.4961 9.09338 10.6397C8.74674 10.7832 8.37521 10.8571 8 10.8571ZM8 0C5.87827 0 3.84344 0.842855 2.34315 2.34315C0.842855 3.84344 0 5.87827 0 8C0 14 8 22.8571 8 22.8571C8 22.8571 16 14 16 8C16 5.87827 15.1571 3.84344 13.6569 2.34315C12.1566 0.842855 10.1217 0 8 0Z" fill="white"/>
</svg>
