<svg width="25" height="25" viewBox="0 0 25 25" fill="none" xmlns="http://www.w3.org/2000/svg">
<g clip-path="url(#clip0_32_235)">
<mask id="mask0_32_235" style="mask-type:luminance" maskUnits="userSpaceOnUse" x="0" y="0" width="25" height="25">
<path d="M0 0H25V25H0V0Z" fill="white"/>
</mask>
<g mask="url(#mask0_32_235)">
<path fill-rule="evenodd" clip-rule="evenodd" d="M8.61719 5.46886H9.5875L10.275 4.78136L11.9469 3.10949C12.0194 3.03673 12.1057 2.97901 12.2006 2.93963C12.2955 2.90024 12.3972 2.87997 12.5 2.87997C12.6028 2.87997 12.7045 2.90024 12.7994 2.93963C12.8943 2.97901 12.9806 3.03673 13.0531 3.10949L14.725 4.78136L15.4125 5.46886H18.75C18.9572 5.46886 19.1559 5.55117 19.3024 5.69769C19.4489 5.8442 19.5313 6.04291 19.5313 6.25011V9.58762L20.2188 10.2751L21.8906 11.947C21.9634 12.0196 22.0211 12.1058 22.0605 12.2007C22.0999 12.2956 22.1201 12.3974 22.1201 12.5001C22.1201 12.6029 22.0999 12.7046 22.0605 12.7995C22.0211 12.8945 21.9634 12.9807 21.8906 13.0532L20.2188 14.7251L19.5313 15.4126V18.7501C19.5313 18.9573 19.4489 19.156 19.3024 19.3025C19.1559 19.4491 18.9572 19.5314 18.75 19.5314H15.4141L14.7266 20.2189L13.0531 21.8907C12.9066 22.0372 12.7079 22.1195 12.5008 22.1195C12.2936 22.1195 12.0949 22.0372 11.9484 21.8907L10.2734 20.2189L9.5875 19.5314H6.25C6.0428 19.5314 5.84409 19.4491 5.69757 19.3025C5.55106 19.156 5.46875 18.9573 5.46875 18.7501V15.4126L4.78125 14.7251L3.10938 13.0532C3.03662 12.9807 2.9789 12.8945 2.93951 12.7995C2.90013 12.7046 2.87986 12.6029 2.87986 12.5001C2.87986 12.3974 2.90013 12.2956 2.93951 12.2007C2.9789 12.1058 3.03662 12.0196 3.10938 11.947L4.78125 10.2751L5.46875 9.58762V6.25011C5.46875 6.04291 5.55106 5.8442 5.69757 5.69769C5.84409 5.55117 6.0428 5.46886 6.25 5.46886H8.61719ZM14.7109 1.45168C14.4207 1.16113 14.0761 0.930629 13.6967 0.773365C13.3173 0.616102 12.9107 0.535156 12.5 0.535156C12.0893 0.535156 11.6827 0.616102 11.3033 0.773365C10.9239 0.930629 10.5793 1.16113 10.2891 1.45168L8.61875 3.12511H6.25C5.4212 3.12511 4.62634 3.45435 4.04029 4.04041C3.45424 4.62646 3.125 5.42131 3.125 6.25011V8.6173L1.45313 10.2892C1.16258 10.5794 0.932078 10.9241 0.774815 11.3034C0.617552 11.6828 0.536606 12.0894 0.536606 12.5001C0.536606 12.9108 0.617552 13.3174 0.774815 13.6968C0.932078 14.0762 1.16258 14.4208 1.45313 14.7111L3.125 16.3814V18.7501C3.125 19.5789 3.45424 20.3738 4.04029 20.9598C4.62634 21.5459 5.4212 21.8751 6.25 21.8751H8.61719L10.2891 23.5486C10.5793 23.8391 10.9239 24.0696 11.3033 24.2269C11.6827 24.3841 12.0893 24.4651 12.5 24.4651C12.9107 24.4651 13.3173 24.3841 13.6967 24.2269C14.0761 24.0696 14.4207 23.8391 14.7109 23.5486L16.3813 21.8751H18.75C19.5788 21.8751 20.3737 21.5459 20.9597 20.9598C21.5458 20.3738 21.875 19.5789 21.875 18.7501V16.3829L23.5484 14.7111C23.839 14.4208 24.0695 14.0762 24.2268 13.6968C24.384 13.3174 24.465 12.9108 24.465 12.5001C24.465 12.0894 24.384 11.6828 24.2268 11.3034C24.0695 10.9241 23.839 10.5794 23.5484 10.2892L21.8766 8.6173V6.25011C21.8766 5.42131 21.5473 4.62646 20.9613 4.04041C20.3752 3.45435 19.5804 3.12511 18.7516 3.12511H16.3828L14.7109 1.45168ZM17.3438 10.0782C17.5302 9.8296 17.6103 9.51706 17.5663 9.20939C17.5224 8.90171 17.358 8.62409 17.1094 8.43761C16.8607 8.25113 16.5482 8.17106 16.2405 8.21502C15.9328 8.25897 15.6552 8.42335 15.4688 8.67199L11.5938 13.8407L9.42188 11.672C9.19973 11.465 8.90591 11.3523 8.60231 11.3577C8.29871 11.363 8.00905 11.486 7.79434 11.7007C7.57963 11.9154 7.45665 12.2051 7.45129 12.5087C7.44593 12.8123 7.55863 13.1061 7.76563 13.3282L10.8906 16.4532C11.0093 16.5719 11.1521 16.6637 11.3093 16.7224C11.4665 16.7811 11.6345 16.8053 11.802 16.7935C11.9694 16.7816 12.1323 16.734 12.2797 16.6537C12.427 16.5734 12.5555 16.4624 12.6563 16.3282L17.3438 10.0782Z" fill="white"/>
</g>
</g>
<defs>
<clipPath id="clip0_32_235">
<rect width="25" height="25" fill="white"/>
</clipPath>
</defs>
</svg>
