<svg width="25" height="25" viewBox="0 0 25 25" fill="none" xmlns="http://www.w3.org/2000/svg">
<path fill-rule="evenodd" clip-rule="evenodd" d="M17.2417 23.0553C15.7417 23.0001 11.4906 22.4126 7.03854 17.9615C2.5875 13.5094 2.00104 9.25945 1.94479 7.75841C1.86146 5.47091 3.61354 3.24903 5.6375 2.38132C5.88123 2.27608 6.14813 2.23601 6.41201 2.26505C6.6759 2.29408 6.9277 2.39123 7.14271 2.54695C8.80937 3.76153 9.95937 5.59903 10.9469 7.04382C11.1641 7.36125 11.257 7.74752 11.2079 8.12903C11.1587 8.51054 10.9709 8.86062 10.6802 9.11257L8.64792 10.6219C8.54973 10.6928 8.48062 10.797 8.45341 10.915C8.42621 11.033 8.44276 11.1569 8.5 11.2636C8.96042 12.1001 9.77917 13.3459 10.7167 14.2834C11.6552 15.2209 12.9594 16.0938 13.8542 16.6063C13.9664 16.6693 14.0984 16.6869 14.2232 16.6555C14.348 16.6241 14.456 16.5461 14.525 16.4376L15.8479 14.424C16.0911 14.101 16.4499 13.8845 16.8491 13.8201C17.2484 13.7556 17.657 13.8481 17.9896 14.0782C19.4552 15.0928 21.1656 16.223 22.4177 17.8261C22.5861 18.0427 22.6932 18.3005 22.7278 18.5726C22.7624 18.8447 22.7233 19.1212 22.6146 19.373C21.7427 21.4074 19.5365 23.1397 17.2417 23.0553Z" fill="#5DA042"/>
</svg>
