<svg width="40" height="40" viewBox="0 0 40 40" fill="none" xmlns="http://www.w3.org/2000/svg">
<path d="M36.7734 0.734375C37.0078 0.976562 37.1875 1.25 37.3125 1.53906C37.4375 1.82813 37.5 2.14844 37.5 2.49219V10C37.5 11.3828 36.3828 12.5 35 12.5C33.6172 12.5 32.5 11.3828 32.5 10V8.53906L24.2656 16.7656C23.3438 17.6875 21.8594 17.75 20.8672 16.8984L13.75 10.7891L6.625 16.8984C5.57813 17.7969 4 17.6719 3.10156 16.625C2.20312 15.5781 2.32812 14 3.375 13.1016L12.125 5.60156C13.0625 4.79687 14.4453 4.79687 15.3828 5.60156L22.375 11.5938L28.9609 5H27.5C26.1172 5 25 3.88281 25 2.5C25 1.11719 26.1172 0 27.5 0H35C35.6875 0 36.3125 0.28125 36.7656 0.726562L36.7734 0.734375ZM0 23.75C0 21.6797 1.67969 20 3.75 20H36.25C38.3203 20 40 21.6797 40 23.75V36.25C40 38.3203 38.3203 40 36.25 40H3.75C1.67969 40 0 38.3203 0 36.25V23.75ZM3.75 32.5V36.25H7.5C7.5 34.1797 5.82031 32.5 3.75 32.5ZM7.5 23.75H3.75V27.5C5.82031 27.5 7.5 25.8203 7.5 23.75ZM36.25 32.5C34.1797 32.5 32.5 34.1797 32.5 36.25H36.25V32.5ZM32.5 23.75C32.5 25.8203 34.1797 27.5 36.25 27.5V23.75H32.5ZM25 30C25 28.6739 24.4732 27.4021 23.5355 26.4645C22.5979 25.5268 21.3261 25 20 25C18.6739 25 17.4021 25.5268 16.4645 26.4645C15.5268 27.4021 15 28.6739 15 30C15 31.3261 15.5268 32.5979 16.4645 33.5355C17.4021 34.4732 18.6739 35 20 35C21.3261 35 22.5979 34.4732 23.5355 33.5355C24.4732 32.5979 25 31.3261 25 30Z" fill="#5DA042"/>
</svg>
