<svg width="46" height="29" viewBox="0 0 46 29" fill="none" xmlns="http://www.w3.org/2000/svg">
<path d="M0 12.75C0 10.6797 1.67969 9 3.75 9H36.25C38.3203 9 40 10.6797 40 12.75V25.25C40 27.3203 38.3203 29 36.25 29H3.75C1.67969 29 0 27.3203 0 25.25V12.75ZM3.75 21.5V25.25H7.5C7.5 23.1797 5.82031 21.5 3.75 21.5ZM7.5 12.75H3.75V16.5C5.82031 16.5 7.5 14.8203 7.5 12.75ZM36.25 21.5C34.1797 21.5 32.5 23.1797 32.5 25.25H36.25V21.5ZM32.5 12.75C32.5 14.8203 34.1797 16.5 36.25 16.5V12.75H32.5ZM25 19C25 17.6739 24.4732 16.4021 23.5355 15.4645C22.5979 14.5268 21.3261 14 20 14C18.6739 14 17.4021 14.5268 16.4645 15.4645C15.5268 16.4021 15 17.6739 15 19C15 20.3261 15.5268 21.5979 16.4645 22.5355C17.4021 23.4732 18.6739 24 20 24C21.3261 24 22.5979 23.4732 23.5355 22.5355C24.4732 21.5979 25 20.3261 25 19Z" fill="#5DA042"/>
<path d="M43 0.5H33C32.337 0.5 31.7011 0.763392 31.2322 1.23223C30.7634 1.70107 30.5 2.33696 30.5 3V19C30.5 19.663 30.7634 20.2989 31.2322 20.7678C31.7011 21.2366 32.337 21.5 33 21.5H43C43.663 21.5 44.2989 21.2366 44.7678 20.7678C45.2366 20.2989 45.5 19.663 45.5 19V3C45.5 2.33696 45.2366 1.70107 44.7678 1.23223C44.2989 0.763392 43.663 0.5 43 0.5ZM42.5 6.5H33.5V3.5H42.5V6.5ZM34.5 10.5H33.5V9.5H34.5V10.5ZM38.5 10.5H37.5V9.5H38.5V10.5ZM42.5 10.5H41.5V9.5H42.5V10.5ZM34.5 14.5H33.5V13.5H34.5V14.5ZM38.5 14.5H37.5V13.5H38.5V14.5ZM42.5 14.5H41.5V13.5H42.5V14.5ZM34.5 18.5H33.5V17.5H34.5V18.5ZM38.5 18.5H37.5V17.5H38.5V18.5ZM42.5 18.5H41.5V17.5H42.5V18.5Z" fill="#5DA042" stroke="white"/>
</svg>
