<svg width="36" height="35" viewBox="0 0 36 35" fill="none" xmlns="http://www.w3.org/2000/svg">
<path d="M6.20281 27.6507L0.707911 33.1435C0.0777571 33.7734 0.523881 34.8507 1.41488 34.8507H34.1997C34.752 34.8507 35.1997 34.403 35.1997 33.8507V1.06941C35.1997 0.178514 34.1226 -0.267661 33.4926 0.36228L6.20281 27.6507ZM23.1791 11.7376C23.303 11.614 23.4709 11.5445 23.6459 11.5445C23.821 11.5445 23.9889 11.614 24.1128 11.7376L25.7441 13.3689C25.8673 13.4919 25.9366 13.6589 25.9368 13.8331C25.9369 14.0073 25.8678 14.1744 25.7448 14.2977C25.6217 14.421 25.4547 14.4903 25.2805 14.4904C25.1063 14.4905 24.9392 14.4215 24.8159 14.2984L23.1791 12.6671C23.1179 12.606 23.0694 12.5335 23.0363 12.4536C23.0032 12.3737 22.9862 12.2881 22.9862 12.2017C22.9862 12.1152 23.0032 12.0296 23.0363 11.9498C23.0694 11.8699 23.1179 11.7987 23.1791 11.7376ZM20.9291 13.9932C20.9898 13.932 21.0621 13.8834 21.1418 13.8503C21.2214 13.8171 21.3069 13.8 21.3931 13.8C21.4794 13.8 21.5648 13.8171 21.6445 13.8503C21.7241 13.8834 21.7964 13.932 21.8572 13.9932L24.8905 17.0223C24.9517 17.0831 25.0003 17.1554 25.0334 17.235C25.0666 17.3147 25.0837 17.4001 25.0837 17.4864C25.0837 17.5726 25.0666 17.6581 25.0334 17.7377C25.0003 17.8174 24.9517 17.8897 24.8905 17.9504C24.8301 18.0129 24.7578 18.0627 24.6779 18.0968C24.598 18.1309 24.5121 18.1487 24.4252 18.1491C24.3383 18.1495 24.2522 18.1325 24.172 18.0991C24.0918 18.0657 24.0191 18.0166 23.9581 17.9547L20.9263 14.927C20.8027 14.8033 20.7333 14.6356 20.7333 14.4608C20.7333 14.286 20.8027 14.1183 20.9263 13.9946L20.9291 13.9932ZM18.672 16.2432C18.7963 16.1203 18.9641 16.0513 19.1389 16.0513C19.3137 16.0513 19.4815 16.1203 19.6058 16.2432L21.237 17.8773C21.3302 17.9689 21.3939 18.0862 21.4201 18.2143C21.4462 18.3423 21.4335 18.4752 21.3837 18.596C21.3339 18.7168 21.2491 18.82 21.1404 18.8924C21.0316 18.9648 20.9036 19.003 20.773 19.0023C20.686 19.0024 20.5998 18.9854 20.5194 18.9521C20.4391 18.9188 20.3661 18.8699 20.3047 18.8082L18.6734 17.177C18.5497 17.0528 18.4802 16.8847 18.4802 16.7094C18.4802 16.5341 18.5497 16.366 18.6734 16.2418L18.672 16.2432ZM16.422 18.4989C16.5463 18.376 16.7141 18.3073 16.8888 18.3079C17.0635 18.3084 17.2309 18.3781 17.3544 18.5017L18.9828 20.1329C19.0439 20.1942 19.0924 20.267 19.1254 20.347C19.1584 20.4271 19.1753 20.5128 19.1752 20.5994C19.1751 20.686 19.1579 20.7717 19.1246 20.8516C19.0914 20.9315 19.0427 21.0042 18.9814 21.0653C18.9201 21.1264 18.8473 21.1749 18.7673 21.2079C18.6873 21.2409 18.6015 21.2578 18.5149 21.2577C18.4284 21.2575 18.3427 21.2404 18.2627 21.2071C18.1828 21.1739 18.1102 21.1252 18.0491 21.0639L16.4206 19.4326C16.297 19.3087 16.2275 19.1408 16.2275 18.9657C16.2275 18.7907 16.297 18.6228 16.4206 18.4989H16.422ZM14.1664 20.7545C14.2275 20.693 14.3001 20.6441 14.3801 20.6108C14.4601 20.5775 14.5459 20.5603 14.6326 20.5603C14.7192 20.5603 14.8051 20.5775 14.8851 20.6108C14.9651 20.6441 15.0377 20.693 15.0987 20.7545L18.1278 23.7822C18.1916 23.8429 18.2426 23.9158 18.2777 23.9966C18.3129 24.0773 18.3316 24.1643 18.3327 24.2524C18.3338 24.3405 18.3173 24.4279 18.2841 24.5095C18.2509 24.5911 18.2018 24.6653 18.1395 24.7276C18.0773 24.7899 18.0032 24.8392 17.9217 24.8725C17.8401 24.9058 17.7527 24.9225 17.6646 24.9215C17.5765 24.9205 17.4895 24.902 17.4087 24.8669C17.3279 24.8319 17.2549 24.781 17.1941 24.7173L14.1664 21.6868C14.0428 21.5632 13.9734 21.3955 13.9734 21.2207C13.9734 21.0458 14.0428 20.8782 14.1664 20.7545ZM11.368 31.4743C11.307 31.5359 11.2345 31.5848 11.1546 31.6182C11.0747 31.6517 10.989 31.6691 10.9024 31.6693C10.8158 31.6696 10.7299 31.6527 10.6498 31.6198C10.5698 31.5868 10.497 31.5383 10.4356 31.4771L7.40656 28.4495C7.34534 28.3884 7.29677 28.3158 7.2636 28.2359C7.23043 28.156 7.21333 28.0703 7.21326 27.9838C7.2132 27.8973 7.23017 27.8116 7.26322 27.7317C7.29626 27.6517 7.34473 27.5791 7.40586 27.5179C7.46698 27.4566 7.53957 27.4081 7.61947 27.3749C7.69937 27.3417 7.78502 27.3246 7.87153 27.3246C7.95805 27.3245 8.04372 27.3415 8.12367 27.3745C8.20362 27.4076 8.27628 27.456 8.3375 27.5172L11.3666 30.5462C11.4278 30.607 11.4764 30.6793 11.5095 30.7589C11.5427 30.8386 11.5598 30.924 11.5598 31.0103C11.5598 31.0965 11.5427 31.182 11.5095 31.2616C11.4764 31.3413 11.4278 31.4136 11.3666 31.4743H11.368ZM12.2258 27.8223C12.1013 27.9473 11.9325 28.018 11.7561 28.0192C11.6697 28.0195 11.5841 28.0024 11.5044 27.9691C11.4247 27.9358 11.3525 27.8868 11.292 27.8251L9.65656 26.1939C9.59517 26.1332 9.54642 26.0609 9.51316 25.9813C9.47989 25.9016 9.46276 25.8161 9.46276 25.7298C9.46276 25.6435 9.47989 25.558 9.51316 25.4784C9.54642 25.3987 9.59517 25.3264 9.65656 25.2657C9.71726 25.2036 9.78967 25.1542 9.86961 25.1203C9.94955 25.0863 10.0354 25.0686 10.1223 25.0681C10.2091 25.0675 10.2952 25.0842 10.3755 25.1172C10.4559 25.1502 10.5289 25.1988 10.5903 25.2601L12.2244 26.8942C12.2856 26.955 12.3342 27.0273 12.3674 27.1069C12.4005 27.1866 12.4176 27.272 12.4176 27.3582C12.4176 27.4445 12.4005 27.5299 12.3674 27.6096C12.3342 27.6892 12.2856 27.7615 12.2244 27.8223H12.2258ZM14.4758 25.5695C14.415 25.6311 14.3425 25.6801 14.2626 25.7135C14.1827 25.7469 14.0969 25.7641 14.0103 25.7641C13.9237 25.7641 13.838 25.7469 13.7581 25.7135C13.6781 25.6801 13.6057 25.6311 13.5448 25.5695L11.9136 23.9382C11.8525 23.8769 11.804 23.8042 11.771 23.7241C11.738 23.6441 11.7211 23.5584 11.7212 23.4718C11.7213 23.3852 11.7385 23.2995 11.7718 23.2196C11.805 23.1396 11.8537 23.067 11.915 23.0059C11.9763 22.9448 12.0491 22.8963 12.1291 22.8633C12.2091 22.8303 12.2949 22.8134 12.3815 22.8135C12.468 22.8136 12.5537 22.8308 12.6337 22.8641C12.7136 22.8973 12.7862 22.946 12.8473 23.0073L14.4786 24.6386C14.6014 24.7623 14.6703 24.9297 14.6703 25.104C14.6703 25.2784 14.6014 25.4457 14.4786 25.5695H14.4758ZM28.1684 27.8195H15.9762L28.1684 15.6273V27.8195ZM27.9997 12.047C27.9392 12.1087 27.867 12.1576 27.7873 12.191C27.7076 12.2243 27.622 12.2413 27.5356 12.2411C27.3595 12.2411 27.1906 12.1713 27.0659 12.047L25.4347 10.4157C25.3736 10.3546 25.3251 10.2821 25.292 10.2022C25.2589 10.1223 25.2419 10.0367 25.2419 9.95027C25.2419 9.86383 25.2589 9.77823 25.292 9.69837C25.3251 9.6185 25.3736 9.54593 25.4347 9.48481C25.4958 9.42368 25.5684 9.37519 25.6482 9.34211C25.7281 9.30903 25.8137 9.292 25.9002 9.292C25.9866 9.292 26.0722 9.30903 26.1521 9.34211C26.2319 9.37519 26.3045 9.42368 26.3656 9.48481L27.9969 11.1161C28.2556 11.3734 28.257 11.7911 27.9997 12.047ZM31.6503 11.192C31.5265 11.3149 31.359 11.3838 31.1846 11.3836C31.0101 11.3833 30.8428 11.3139 30.7194 11.1906L27.6903 8.16293C27.5669 8.03911 27.4977 7.87132 27.4979 7.69647C27.4982 7.52162 27.5679 7.35404 27.6917 7.23059C27.8155 7.10714 27.9833 7.03793 28.1582 7.0382C28.333 7.03846 28.5006 7.10817 28.6241 7.23199L31.6531 10.2611C31.9105 10.5184 31.9062 10.9361 31.6503 11.192Z" fill="#5DA042"/>
</svg>
