<svg width="35" height="34" viewBox="0 0 35 34" fill="none" xmlns="http://www.w3.org/2000/svg">
<path d="M18.5453 0.648591C18.4488 0.453837 18.2998 0.28992 18.1151 0.175321C17.9304 0.0607225 17.7174 0 17.5 0C17.2826 0 17.0696 0.0607225 16.8849 0.175321C16.7002 0.28992 16.5512 0.453837 16.4547 0.648591L11.6784 10.3247L0.998986 11.8764C0.783507 11.9077 0.581085 11.9986 0.41462 12.139C0.248155 12.2793 0.124291 12.4635 0.0570399 12.6706C-0.0102108 12.8777 -0.018164 13.0995 0.0340802 13.3108C0.0863244 13.5222 0.196681 13.7147 0.352665 13.8667L8.08051 21.3985L6.25588 32.036C6.21928 32.2504 6.24333 32.4707 6.32533 32.6722C6.40733 32.8736 6.54401 33.0481 6.71993 33.176C6.89586 33.3039 7.10403 33.38 7.32094 33.3959C7.53786 33.4117 7.75488 33.3666 7.94752 33.2656L17.5 28.2421L27.0525 33.2656C27.2451 33.3666 27.4621 33.4117 27.6791 33.3959C27.896 33.38 28.1041 33.3039 28.2801 33.176C28.456 33.0481 28.5927 32.8736 28.6747 32.6722C28.7567 32.4707 28.7807 32.2504 28.7441 32.036L26.9195 21.3962L34.6473 13.8667C34.8033 13.7147 34.9137 13.5222 34.9659 13.3108C35.0182 13.0995 35.0102 12.8777 34.943 12.6706C34.8757 12.4635 34.7518 12.2793 34.5854 12.139C34.4189 11.9986 34.2165 11.9077 34.001 11.8764L23.3216 10.3247L18.5453 0.648591Z" fill="white"/>
</svg>
